<?xml version="1.0" standalone="yes"?>
<svg xmlns="http://www.w3.org/2000/svg" width="640" height="360">
<path style="fill:#fbf3ef; stroke:none;" d="M0 0L0 360L640 360L640 0L0 0z"/>
<path style="fill:#c55b53; stroke:none;" d="M118 160C123.202 167.385 137.903 183.617 148.363 174.397C152.088 171.113 153.903 164.409 156 160L118 160z"/>
<path style="fill:#eca713; stroke:none;" d="M148 176L160 176C160 194.769 159.114 206.105 176 218L176 160C159.736 160 154.617 160.107 148 176M115 162L115 219L116 219L116 180L115 162z"/>
<path style="fill:#c55b53; stroke:none;" d="M116 162L116 220C128.678 220 130.551 215.467 135 204C128.373 199.704 133.404 185.868 131.682 179C130.034 172.425 121.312 165.742 116 162z"/>
<path style="fill:#3c271d; stroke:none;" d="M262 170L262 172C277.009 172.053 271.667 189.958 272.015 200.999C272.282 209.439 279.099 211.317 286 208L286 207C268.219 207.383 274 182.896 274 170L262 170z"/>
<path style="fill:#97827f; stroke:none;" d="M274 170L274 202L275 202L274 170z"/>
<path style="fill:#3c271d; stroke:none;" d="M393 170L393 209L396 209C396 203.233 394.25 194.024 397.603 189.044C400.274 185.079 406.5 182.178 410.272 186.434C414.912 191.668 413 202.57 413 209L415 209C415 200.335 417.695 173.896 401.025 183.066C399.115 184.116 397.612 185.563 396 187L396 170L393 170z"/>
<path style="fill:#97827f; stroke:none;" d="M304 171L304 181L305 181L304 171M467 171L468 172L467 171M262 172L262 173L271 173L262 172z"/>
<path style="fill:#3c271d; stroke:none;" d="M303 172L302 182L294 182L294 184L302 184C302 196.504 300.237 215.917 319 208L319 207C315.569 207.042 311.28 207.825 308.228 205.871C303.789 203.028 301.72 189.487 305.603 185.603C308.339 182.867 314.474 184 318 184L318 182C307.069 182 306.872 181.204 303 172M466 172L465 182L457 182L457 184L465 184C465 189.961 462.715 201.966 466.5 206.889C469.681 211.026 480.762 211.809 482 206C465.69 210.083 468 195.644 468 184L481 184L481 182L468 182L468 172L466 172z"/>
<path style="fill:#97827f; stroke:none;" d="M198 173L198 174L209 174L198 173z"/>
<path style="fill:#eca713; stroke:none;" d="M209.667 173.333L210.333 173.667L209.667 173.333z"/>
<path style="fill:#97827f; stroke:none;" d="M271 173L271 203L272 203L271 173z"/>
<path style="fill:#eca713; stroke:none;" d="M301 173L302 174L301 173z"/>
<path style="fill:#97827f; stroke:none;" d="M370 173L371 174L370 173z"/>
<path style="fill:#3c271d; stroke:none;" d="M384 204C379.736 204.964 375.475 207.91 371.001 206.254C354.025 199.971 362.753 169.325 382 179L383 176C379.848 174.348 376.661 172.941 373 173.225C358.141 174.379 354.5 196.594 364.133 205.775C369.884 211.256 380.096 211.462 384 204z"/>
<path style="fill:#97827f; stroke:none;" d="M377 173L378 174L377 173z"/>
<path style="fill:#eca713; stroke:none;" d="M378 173L379 174L378 173M464 173L465 174L464 173z"/>
<path style="fill:#3c271d; stroke:none;" d="M198 174L198 209C203.527 209 210.92 210.26 215.945 207.543C225.109 202.589 219.833 193.429 213 190C218.77 186.791 221.361 178.367 213.895 175.009C209.311 172.947 202.916 174 198 174z"/>
<path style="fill:#97827f; stroke:none;" d="M213 174L214 175L213 174M301 174L301 182L302 182L301 174M367 174L368 175L367 174M380 174L381 175L380 174M464 174L464 182L465 182L464 174M215 175L216 176L215 175z"/>
<path style="fill:#eca713; stroke:none;" d="M365 175L366 176L365 175z"/>
<path style="fill:#97827f; stroke:none;" d="M201 176L202 177L201 176z"/>
<path style="fill:#eca713; stroke:none;" d="M202 176L202 177L208 177L202 176z"/>
<path style="fill:#97827f; stroke:none;" d="M208 176L208 177L211 177L208 176M364 176L365 177L364 176M370 176L371 177L370 176M377 176L378 177L377 176z"/>
<path style="fill:#fbf3ef; stroke:none;" d="M201 177L201 189C205.345 189 223.364 184.997 212.718 178.179C209.579 176.169 204.555 177 201 177z"/>
<path style="fill:#eca713; stroke:none;" d="M212 177L213 178L212 177z"/>
<path style="fill:#97827f; stroke:none;" d="M213 177L214 178L213 177M217 177L218 178L217 177M363 177L364 178L363 177z"/>
<path style="fill:#eca713; stroke:none;" d="M368 177L369 178L368 177z"/>
<path style="fill:#97827f; stroke:none;" d="M379 177L380 178L379 177M383 177L384 178L383 177M214 178L215 179L214 178z"/>
<path style="fill:#eca713; stroke:none;" d="M218 178L219 179L218 178z"/>
<path style="fill:#97827f; stroke:none;" d="M362 178L363 179L362 178M382 178L383 179L382 178M218 179L219 180L218 179M215 180L216 181L215 180z"/>
<path style="fill:#eca713; stroke:none;" d="M215 181L216 182L215 181z"/>
<path style="fill:#97827f; stroke:none;" d="M237 181L238 182L237 181z"/>
<path style="fill:#3c271d; stroke:none;" d="M238.001 181.573C221.947 185.384 227.107 214.086 243.999 209.424C258.966 205.293 254.328 177.696 238.001 181.573z"/>
<path style="fill:#97827f; stroke:none;" d="M243.667 181.333L244.333 181.667L243.667 181.333z"/>
<path style="fill:#eca713; stroke:none;" d="M294 181L294 182L301 182L294 181M305 181L305 182L318 182L305 181M360 181L361 182L360 181z"/>
<path style="fill:#97827f; stroke:none;" d="M364 181L365 182L364 181M403.667 181.333L404.333 181.667L403.667 181.333M408.667 181.333L409.333 181.667L408.667 181.333M434.667 181.333L435.333 181.667L434.667 181.333z"/>
<path style="fill:#3c271d; stroke:none;" d="M428 187C435.899 184.196 441.364 182.766 445 192C439.26 192.729 430.455 193.054 426.746 198.214C423.047 203.36 427.451 209.146 433.001 209.746C437.645 210.248 441.475 207.634 445 205L445 209L448 209C448 202.007 449.902 191.084 445.411 185.133C441.193 179.545 430.332 180.195 428 187z"/>
<path style="fill:#97827f; stroke:none;" d="M440 181L441 182L440 181z"/>
<path style="fill:#eca713; stroke:none;" d="M441 181L442 182L441 181M457 181L457 182L464 182L457 181M468 181L468 182L481 182L468 181z"/>
<path style="fill:#97827f; stroke:none;" d="M246 182L247 183L246 182z"/>
<path style="fill:#eca713; stroke:none;" d="M318.333 182.667L318.667 183.333L318.333 182.667z"/>
<path style="fill:#97827f; stroke:none;" d="M360 182L361 183L360 182M401 182L402 183L401 182M411 182L412 183L411 182M431 182L432 183L431 182M443 182L444 183L443 182z"/>
<path style="fill:#eca713; stroke:none;" d="M481.333 182.667L481.667 183.333L481.333 182.667z"/>
<path style="fill:#97827f; stroke:none;" d="M215.333 183.667L215.667 184.333L215.333 183.667M233 183L234 184L233 183M363 183L364 184L363 183z"/>
<path style="fill:#eca713; stroke:none;" d="M399 183L400 184L399 183z"/>
<path style="fill:#97827f; stroke:none;" d="M429 183L430 184L429 183M444 183L445 184L444 183M218.333 184.667L218.667 185.333L218.333 184.667M237 184L238 185L237 184z"/>
<path style="fill:#eca713; stroke:none;" d="M238 184L239 185L238 184z"/>
<path style="fill:#fbf3ef; stroke:none;" d="M239.015 184.616C227.656 187.29 230.469 209.679 242.985 206.551C253.971 203.805 251.297 181.724 239.015 184.616z"/>
<path style="fill:#97827f; stroke:none;" d="M243.667 184.333L244.333 184.667L243.667 184.333M249 184L250 185L249 184M294 184L294 185L301 185L301 201L302 201L302 184L294 184M305 184L305 185L318 185L305 184M359.333 184.667L359.667 185.333L359.333 184.667M398 184L399 185L398 184M402 184L403 185L402 184M408 184L409 185L408 184M413 184L414 185L413 184M433 184L434 185L433 184M440 184L441 185L440 184M445 184L446 185L445 184M457 184L457 185L464 185L464 201L465 201L465 184L457 184M468 184L468 185L481 185L468 184M245 185L246 186L245 185z"/>
<path style="fill:#eca713; stroke:none;" d="M250 185L251 186L250 185z"/>
<path style="fill:#97827f; stroke:none;" d="M304 185L304 199L305 199L304 185M397 185L398 186L397 185M400 185L401 186L400 185M410 185L411 186L410 185z"/>
<path style="fill:#eca713; stroke:none;" d="M414 185L415 186L414 185z"/>
<path style="fill:#97827f; stroke:none;" d="M427 185L428 186L427 185M431 185L432 186L431 185z"/>
<path style="fill:#eca713; stroke:none;" d="M446 185L447 186L446 185z"/>
<path style="fill:#97827f; stroke:none;" d="M214 186L215 187L214 186M230 186L231 187L230 186M234 186L235 187L234 186M362.333 186.667L362.667 187.333L362.333 186.667M396 186L397 187L396 186M399 186L400 187L399 186M414 186L415 187L414 186M213 187L214 188L213 187z"/>
<path style="fill:#eca713; stroke:none;" d="M217 187L218 188L217 187z"/>
<path style="fill:#97827f; stroke:none;" d="M233 187L234 188L233 187M251 187L252 188L251 187z"/>
<path style="fill:#eca713; stroke:none;" d="M398 187L399 188L398 187z"/>
<path style="fill:#97827f; stroke:none;" d="M411 187L412 188L411 187z"/>
<path style="fill:#eca713; stroke:none;" d="M428 187L429 188L428 187z"/>
<path style="fill:#97827f; stroke:none;" d="M443 187L444 188L443 187M211 188L212 189L211 188z"/>
<path style="fill:#eca713; stroke:none;" d="M216 188L217 189L216 188z"/>
<path style="fill:#97827f; stroke:none;" d="M229 188L230 189L229 188z"/>
<path style="fill:#eca713; stroke:none;" d="M233 188L234 189L233 188z"/>
<path style="fill:#97827f; stroke:none;" d="M248 188L249 189L248 188z"/>
<path style="fill:#eca713; stroke:none;" d="M362 188L363 189L362 188M397 188L398 189L397 188M415.333 188.667L415.667 189.333L415.333 188.667M447 188L448 189L447 188z"/>
<path style="fill:#97827f; stroke:none;" d="M214 189L213 191L214 189M232 189L233 190L232 189M252 189L253 190L252 189M396 189L397 190L396 189M447.333 189.667L447.667 190.333L447.333 189.667z"/>
<path style="fill:#eca713; stroke:none;" d="M214 190L215 191L214 190z"/>
<path style="fill:#97827f; stroke:none;" d="M228.333 190.667L228.667 191.333L228.333 190.667M249 190L250 191L249 190z"/>
<path style="fill:#eca713; stroke:none;" d="M358 190L358 193L359 193L358 190z"/>
<path style="fill:#97827f; stroke:none;" d="M415 190L415 209L413 209L413 191L412 191C412 196.633 409.553 207.86 416 210L415 190M444.333 190.667L444.667 191.333L444.333 190.667M216 191L217 192L216 191z"/>
<path style="fill:#eca713; stroke:none;" d="M249 191L250 192L249 191z"/>
<path style="fill:#fbf3ef; stroke:none;" d="M201 192C201 195.552 199.689 202.466 202.028 205.396C208.761 213.832 227.581 194.64 209.999 192.189C207.054 191.778 203.967 192 201 192z"/>
<path style="fill:#97827f; stroke:none;" d="M212 192L213 193L212 192z"/>
<path style="fill:#eca713; stroke:none;" d="M218 192L219 193L218 192z"/>
<path style="fill:#97827f; stroke:none;" d="M231 192L231 198L232 198L231 192z"/>
<path style="fill:#eca713; stroke:none;" d="M253 192L254 193L253 192z"/>
<path style="fill:#97827f; stroke:none;" d="M439 192L439 193L442 193L439 192M215 193L216 194L215 193z"/>
<path style="fill:#eca713; stroke:none;" d="M219 193L220 194L219 193z"/>
<path style="fill:#97827f; stroke:none;" d="M253 193L253 199L254 199L253 193z"/>
<path style="fill:#eca713; stroke:none;" d="M362.333 193.667L362.667 194.333L362.333 193.667z"/>
<path style="fill:#97827f; stroke:none;" d="M434.667 193.333L435.333 193.667L434.667 193.333M431 194L432 195L431 194M441 194L441 195L444 195L442 205L445 194L441 194M220 195L221 196L220 195M362 195L363 196L362 195M429 195L430 196L429 195M436 195L437 196L436 195z"/>
<path style="fill:#eca713; stroke:none;" d="M437 195L438 196L437 195z"/>
<path style="fill:#fbf3ef; stroke:none;" d="M444 195C441.626 195.049 439.323 195.139 436.998 195.681C418.842 199.911 438.509 214.303 443.397 201.958C444.244 199.818 443.992 197.251 444 195z"/>
<path style="fill:#97827f; stroke:none;" d="M217 196L218 197L217 196z"/>
<path style="fill:#eca713; stroke:none;" d="M427 196L428 197L427 196z"/>
<path style="fill:#97827f; stroke:none;" d="M433 196L434 197L433 196z"/>
<path style="fill:#eca713; stroke:none;" d="M217 197L218 198L217 197z"/>
<path style="fill:#97827f; stroke:none;" d="M359 197L360 198L359 197z"/>
<path style="fill:#eca713; stroke:none;" d="M426 197L427 198L426 197M431 197L432 198L431 197M221 198L222 199L221 198M359 198L360 199L359 198M363 198L364 199L363 198z"/>
<path style="fill:#97827f; stroke:none;" d="M228 199L229 200L228 199M249.333 199.667L249.667 200.333L249.333 199.667M363 199L364 200L363 199M425 199L426 200L425 199M217.333 200.667L217.667 201.333L217.333 200.667z"/>
<path style="fill:#eca713; stroke:none;" d="M228 200L229 201L228 200z"/>
<path style="fill:#97827f; stroke:none;" d="M360 200L361 201L360 200M428 200L429 201L428 200M232 201L233 202L232 201M252 201L253 202L252 201z"/>
<path style="fill:#eca713; stroke:none;" d="M301 201L302 202L301 201z"/>
<path style="fill:#97827f; stroke:none;" d="M364 201L365 202L364 201z"/>
<path style="fill:#eca713; stroke:none;" d="M464 201L465 202L464 201z"/>
<path style="fill:#97827f; stroke:none;" d="M220 202L221 203L220 202M229 202L230 203L229 202M248 202L249 203L248 202z"/>
<path style="fill:#eca713; stroke:none;" d="M252 202L253 203L252 202z"/>
<path style="fill:#97827f; stroke:none;" d="M216 203L217 204L216 203z"/>
<path style="fill:#eca713; stroke:none;" d="M220 203L221 204L220 203z"/>
<path style="fill:#97827f; stroke:none;" d="M233 203L234 204L233 203M251 203L252 204L251 203z"/>
<path style="fill:#eca713; stroke:none;" d="M271.333 203.667L271.667 204.333L271.333 203.667z"/>
<path style="fill:#97827f; stroke:none;" d="M305 203L306 204L305 203M382 203L383 204L382 203z"/>
<path style="fill:#eca713; stroke:none;" d="M383 203L384 204L383 203M428 203L429 204L428 203z"/>
<path style="fill:#97827f; stroke:none;" d="M468 203L469 204L468 203z"/>
<path style="fill:#eca713; stroke:none;" d="M128 220L174 220C166.812 209.795 149.015 196.037 135.418 205.028C131.596 207.555 129.218 215.774 128 220z"/>
<path style="fill:#97827f; stroke:none;" d="M215 204L216 205L215 204M230 204L231 205L230 204M234 204L235 205L234 204z"/>
<path style="fill:#eca713; stroke:none;" d="M251 204L252 205L251 204M275 204L276 205L275 204z"/>
<path style="fill:#97827f; stroke:none;" d="M362 204L363 205L362 204z"/>
<path style="fill:#eca713; stroke:none;" d="M384.333 204.667L384.667 205.333L384.333 204.667z"/>
<path style="fill:#97827f; stroke:none;" d="M425 204L426 205L425 204M428 204L429 205L428 204M213 205L214 206L213 205M235 205L236 206L235 205z"/>
<path style="fill:#eca713; stroke:none;" d="M250 205L251 206L250 205z"/>
<path style="fill:#97827f; stroke:none;" d="M275 205L276 206L275 205z"/>
<path style="fill:#eca713; stroke:none;" d="M302 205L303 206L302 205z"/>
<path style="fill:#97827f; stroke:none;" d="M306 205L307 206L306 205M363 205L364 206L363 205M368 205L369 206L368 205z"/>
<path style="fill:#eca713; stroke:none;" d="M379 205L380 206L379 205M425 205L426 206L425 205z"/>
<path style="fill:#97827f; stroke:none;" d="M429 205L430 206L429 205M444 205L445 206L444 205z"/>
<path style="fill:#eca713; stroke:none;" d="M465 205L466 206L465 205z"/>
<path style="fill:#97827f; stroke:none;" d="M469 205L470 206L469 205z"/>
<path style="fill:#eca713; stroke:none;" d="M201 206L202 207L201 206M208 206L209 207L208 206z"/>
<path style="fill:#97827f; stroke:none;" d="M209 206L209 207L212 207L209 206z"/>
<path style="fill:#eca713; stroke:none;" d="M237 206L238 207L237 206z"/>
<path style="fill:#97827f; stroke:none;" d="M244 206L245 207L244 206M249 206L250 207L249 206M272 206L273 207L272 206M276 206L277 207L276 206M283 206L283 207L286 207L283 206M317.667 206.333L318.333 206.667L317.667 206.333M364 206L365 207L364 206M370 206L371 207L370 206M377 206L378 207L377 206z"/>
<path style="fill:#eca713; stroke:none;" d="M383 206L384 207L383 206z"/>
<path style="fill:#97827f; stroke:none;" d="M430 206L431 207L430 206M439 206L440 207L439 206z"/>
<path style="fill:#eca713; stroke:none;" d="M443 206L444 207L443 206z"/>
<path style="fill:#97827f; stroke:none;" d="M480 206L481 207L480 206M216 207L217 208L216 207M240 207L241 208L240 207M248 207L249 208L248 207M279.667 207.333L280.333 207.667L279.667 207.333M311.667 207.333L312.333 207.667L311.667 207.333M365 207L366 208L365 207M433 207L433 208L437 208L433 207M441 207L442 208L441 207M474.667 207.333L475.333 207.667L474.667 207.333M214 208L215 209L214 208M234 208L235 209L234 208M274 208L275 209L274 208M285 208L286 209L285 208M318 208L319 209L318 208M367 208L368 209L367 208M380 208L381 209L380 208M428 208L429 209L428 208z"/>
<path style="fill:#eca713; stroke:none;" d="M440 208L441 209L440 208z"/>
<path style="fill:#97827f; stroke:none;" d="M198 209L198 210L211 210L198 209z"/>
<path style="fill:#eca713; stroke:none;" d="M211 209L212 210L211 209z"/>
<path style="fill:#97827f; stroke:none;" d="M236.667 209.333L237.333 209.667L236.667 209.333M244 209L245 210L244 209M275.667 209.333L276.333 209.667L275.667 209.333M283 209L284 210L283 209M306.667 209.333L307.333 209.667L306.667 209.333M315 209L316 210L315 209z"/>
<path style="fill:#eca713; stroke:none;" d="M316 209L317 210L316 209z"/>
<path style="fill:#97827f; stroke:none;" d="M369.667 209.333L370.333 209.667L369.667 209.333M377 209L378 210L377 209z"/>
<path style="fill:#eca713; stroke:none;" d="M378 209L379 210L378 209z"/>
<path style="fill:#97827f; stroke:none;" d="M393 209L393 210L396 210L393 209z"/>
<path style="fill:#eca713; stroke:none;" d="M412 209L413 210L412 209z"/>
<path style="fill:#97827f; stroke:none;" d="M430 209L431 210L430 209M437 209L438 210L437 209M445 209L445 210L448 210L445 209M469.667 209.333L470.333 209.667L469.667 209.333M478 209L479 210L478 209z"/>
<path style="fill:#eca713; stroke:none;" d="M479 209L480 210L479 209z"/>
</svg>
