<svg width="640" height="360" version="1.1" xmlns="http://www.w3.org/2000/svg" desc="Created with imagetracer.js version 1.2.6" ><path fill="rgb(230,212,201)" stroke="rgb(230,212,201)" stroke-width="1" opacity="1" d="M 117 159 L 176 159.5 L 118 160.5 L 132 174.5 L 131.5 177 L 116 162.5 L 116 220 L 173.5 220 L 173.5 221 L 116.5 221 L 115 219.5 L 115 161.5 Q 117.8 162.1 117 159 Z " /><path fill="rgb(230,212,201)" stroke="rgb(230,212,201)" stroke-width="1" opacity="1" d="M 262.5 169 L 274 169.5 L 262 170 L 261.5 173 L 261 170.5 L 262.5 169 Z " /><path fill="rgb(230,212,201)" stroke="rgb(230,212,201)" stroke-width="1" opacity="1" d="M 393.5 169 L 397 170.5 L 396.5 183 L 396 170 Q 392.7 170.8 393.5 169 Z " /><path fill="rgb(230,212,201)" stroke="rgb(230,212,201)" stroke-width="1" opacity="1" d="M 303.5 171 L 305 171.5 L 302 173.5 Q 303.8 180.2 300.5 182 Q 292.9 180.5 294 184 L 301 184.5 L 293 185 L 294.5 181 L 301 181 L 301 173.5 L 303.5 171 Z " /><path fill="rgb(230,212,201)" stroke="rgb(230,212,201)" stroke-width="1" opacity="1" d="M 466.5 171 L 465 173.5 Q 466.8 180.2 463.5 182 Q 455.9 180.5 457 184 L 464 184.5 L 456 185 L 457.5 181 L 464 181 L 464 173.5 L 466.5 171 Z " /><path fill="rgb(230,212,201)" stroke="rgb(230,212,201)" stroke-width="1" opacity="1" d="M 198.5 173 L 211 173.5 L 198 174 L 197.5 210 L 197 174.5 L 198.5 173 Z " /><path fill="rgb(230,212,201)" stroke="rgb(230,212,201)" stroke-width="1" opacity="1" d="M 365.5 175 L 364.5 177 L 365.5 175 Z " /><path fill="rgb(230,212,201)" stroke="rgb(230,212,201)" stroke-width="1" opacity="1" d="M 382.5 175 L 384 177.5 L 383 177.5 L 382.5 175 Z " /><path fill="rgb(230,212,201)" stroke="rgb(230,212,201)" stroke-width="1" opacity="1" d="M 159.5 176 L 160 201.5 L 159 201.5 L 159.5 176 Z " /><path fill="rgb(230,212,201)" stroke="rgb(230,212,201)" stroke-width="1" opacity="1" d="M 201 176 L 210 176.5 L 202 177 L 201.5 189 L 201 176 Z " /><path fill="rgb(230,212,201)" stroke="rgb(230,212,201)" stroke-width="1" opacity="1" d="M 211.5 177 L 215 179.5 L 212.5 178 L 211.5 177 Z " /><path fill="rgb(230,212,201)" stroke="rgb(230,212,201)" stroke-width="1" opacity="1" d="M 362.5 178 L 361.5 180 L 362.5 178 Z " /><path fill="rgb(230,212,201)" stroke="rgb(230,212,201)" stroke-width="1" opacity="1" d="M 380.5 178 L 381.5 180 L 380.5 178 Z " /><path fill="rgb(230,212,201)" stroke="rgb(230,212,201)" stroke-width="1" opacity="1" d="M 365.5 180 L 364.5 182 L 365.5 180 Z " /><path fill="rgb(230,212,201)" stroke="rgb(230,212,201)" stroke-width="1" opacity="1" d="M 215.5 181 L 216 183.5 L 215 183.5 L 215.5 181 Z " /><path fill="rgb(230,212,201)" stroke="rgb(230,212,201)" stroke-width="1" opacity="1" d="M 305.5 181 L 318.5 181 L 319 183.5 L 317.5 185 L 305.5 185 L 305.5 184 L 317.5 184 L 318 182 L 305.5 182 L 305.5 181 Z " /><path fill="rgb(230,212,201)" stroke="rgb(230,212,201)" stroke-width="1" opacity="1" d="M 468.5 181 L 481.5 181 L 482 183.5 L 480.5 185 L 468.5 185 L 468.5 184 L 480.5 184 L 481 182 L 468.5 182 L 468.5 181 Z " /><path fill="rgb(230,212,201)" stroke="rgb(230,212,201)" stroke-width="1" opacity="1" d="M 400.5 182 L 399.5 184 L 400.5 182 Z " /><path fill="rgb(230,212,201)" stroke="rgb(230,212,201)" stroke-width="1" opacity="1" d="M 406.5 184 Q 411.5 183.5 412 187.5 L 411.5 189 L 408.5 185 Q 405.5 185.5 406.5 184 Z " /><path fill="rgb(230,212,201)" stroke="rgb(230,212,201)" stroke-width="1" opacity="1" d="M 245.5 185 L 247.5 188 L 245.5 185 Z " /><path fill="rgb(230,212,201)" stroke="rgb(230,212,201)" stroke-width="1" opacity="1" d="M 250.5 185 L 251.5 187 L 250.5 185 Z " /><path fill="rgb(230,212,201)" stroke="rgb(230,212,201)" stroke-width="1" opacity="1" d="M 441.5 185 L 444 188.5 L 443 188.5 L 441.5 185 Z " /><path fill="rgb(230,212,201)" stroke="rgb(230,212,201)" stroke-width="1" opacity="1" d="M 427.5 186 L 428.5 188 L 427.5 186 Z " /><path fill="rgb(230,212,201)" stroke="rgb(230,212,201)" stroke-width="1" opacity="1" d="M 217.5 187 L 216.5 189 L 217.5 187 Z " /><path fill="rgb(230,212,201)" stroke="rgb(230,212,201)" stroke-width="1" opacity="1" d="M 362.5 187 L 363 194.5 L 362 194.5 L 362.5 187 Z " /><path fill="rgb(230,212,201)" stroke="rgb(230,212,201)" stroke-width="1" opacity="1" d="M 398.5 187 L 397 189.5 L 396.5 210 L 396 189.5 L 398.5 187 Z " /><path fill="rgb(230,212,201)" stroke="rgb(230,212,201)" stroke-width="1" opacity="1" d="M 358.5 188 L 359 194.5 L 358 194.5 L 358.5 188 Z " /><path fill="rgb(230,212,201)" stroke="rgb(230,212,201)" stroke-width="1" opacity="1" d="M 415.5 188 L 416 190.5 L 415 190.5 L 415.5 188 Z " /><path fill="rgb(230,212,201)" stroke="rgb(230,212,201)" stroke-width="1" opacity="1" d="M 249.5 191 L 250 193.5 L 249 193.5 L 249.5 191 Z " /><path fill="rgb(230,212,201)" stroke="rgb(230,212,201)" stroke-width="1" opacity="1" d="M 201.5 192 L 202 206 L 209 206.5 L 201 207 L 201.5 192 Z " /><path fill="rgb(230,212,201)" stroke="rgb(230,212,201)" stroke-width="1" opacity="1" d="M 210.5 192 L 213 192.5 L 210.5 193 L 210.5 192 Z " /><path fill="rgb(230,212,201)" stroke="rgb(230,212,201)" stroke-width="1" opacity="1" d="M 218.5 192 L 219.5 194 L 218.5 192 Z " /><path fill="rgb(230,212,201)" stroke="rgb(230,212,201)" stroke-width="1" opacity="1" d="M 214.5 193 L 216.5 196 L 214.5 193 Z " /><path fill="rgb(230,212,201)" stroke="rgb(230,212,201)" stroke-width="1" opacity="1" d="M 231.5 194 L 232 196.5 L 231 196.5 L 231.5 194 Z " /><path fill="rgb(230,212,201)" stroke="rgb(230,212,201)" stroke-width="1" opacity="1" d="M 427.5 196 L 426.5 198 L 427.5 196 Z " /><path fill="rgb(230,212,201)" stroke="rgb(230,212,201)" stroke-width="1" opacity="1" d="M 253.5 197 L 254 199.5 L 253 199.5 L 253.5 197 Z " /><path fill="rgb(230,212,201)" stroke="rgb(230,212,201)" stroke-width="1" opacity="1" d="M 221.5 198 L 222 200.5 L 221 200.5 L 221.5 198 Z " /><path fill="rgb(230,212,201)" stroke="rgb(230,212,201)" stroke-width="1" opacity="1" d="M 249.5 198 L 250 200.5 L 249 200.5 L 249.5 198 Z " /><path fill="rgb(230,212,201)" stroke="rgb(230,212,201)" stroke-width="1" opacity="1" d="M 464.5 199 L 465 202.5 L 464 202.5 L 464.5 199 Z " /><path fill="rgb(230,212,201)" stroke="rgb(230,212,201)" stroke-width="1" opacity="1" d="M 301.5 200 L 302 203.5 L 301 203.5 L 301.5 200 Z " /><path fill="rgb(230,212,201)" stroke="rgb(230,212,201)" stroke-width="1" opacity="1" d="M 271.5 203 L 273 206.5 L 271 205.5 L 271.5 203 Z " /><path fill="rgb(230,212,201)" stroke="rgb(230,212,201)" stroke-width="1" opacity="1" d="M 361.5 203 L 362.5 205 L 361.5 203 Z " /><path fill="rgb(230,212,201)" stroke="rgb(230,212,201)" stroke-width="1" opacity="1" d="M 383.5 203 L 385 205.5 L 382 207.5 L 384 204.5 L 383.5 203 Z " /><path fill="rgb(230,212,201)" stroke="rgb(230,212,201)" stroke-width="1" opacity="1" d="M 251.5 204 L 250.5 206 L 251.5 204 Z " /><path fill="rgb(230,212,201)" stroke="rgb(230,212,201)" stroke-width="1" opacity="1" d="M 380.5 204 L 379.5 206 L 380.5 204 Z " /><path fill="rgb(230,212,201)" stroke="rgb(230,212,201)" stroke-width="1" opacity="1" d="M 230.5 205 L 233.5 209 L 230.5 205 Z " /><path fill="rgb(230,212,201)" stroke="rgb(230,212,201)" stroke-width="1" opacity="1" d="M 425.5 205 L 428 208.5 L 425 206.5 L 425.5 205 Z " /><path fill="rgb(230,212,201)" stroke="rgb(230,212,201)" stroke-width="1" opacity="1" d="M 248.5 207 L 247.5 209 L 248.5 207 Z " /><path fill="rgb(230,212,201)" stroke="rgb(230,212,201)" stroke-width="1" opacity="1" d="M 303.5 207 L 304.5 209 L 303.5 207 Z " /><path fill="rgb(230,212,201)" stroke="rgb(230,212,201)" stroke-width="1" opacity="1" d="M 466.5 207 L 467.5 209 L 466.5 207 Z " /><path fill="rgb(230,212,201)" stroke="rgb(230,212,201)" stroke-width="1" opacity="1" d="M 209.5 209 L 212 209.5 L 209.5 210 L 209.5 209 Z " /><path fill="rgb(230,212,201)" stroke="rgb(230,212,201)" stroke-width="1" opacity="1" d="M 309.5 210 L 312 210.5 L 309.5 211 L 309.5 210 Z " /><path fill="rgb(230,212,201)" stroke="rgb(230,212,201)" stroke-width="1" opacity="1" d="M 472.5 210 L 475 210.5 L 472.5 211 L 472.5 210 Z " /><path fill="rgb(251,243,239)" stroke="rgb(251,243,239)" stroke-width="1" opacity="1" d="M 0 0 L 640 0 L 640 360 L 0 360 L 0 0 Z M 117 159 L 117 161 L 132 175 L 135 176 L 137 176 L 159 176 L 159 202 L 176 218 L 176 159 L 117 159 Z M 115 161 L 115 220 L 117 221 L 174 221 L 174 220 L 159 204 L 134 204 L 132 203 L 132 184 L 133 183 Q 131 181 132 177 L 117 161 L 115 161 Z M 263 169 L 261 171 L 262 173 L 271 173 L 271 206 L 273 209 L 279 211 L 285 209 Q 287 210 286 206 L 278 207 L 275 204 L 275 171 L 274 169 L 263 169 Z M 393 169 L 393 210 L 397 210 L 397 190 L 405 184 L 409 185 L 412 190 L 412 210 L 416 210 L 416 189 L 414 183 L 411 181 Q 404 180 401 182 L 396 186 Q 399 180 397 171 L 393 169 Z M 304 171 L 301 174 L 301 181 Q 295 179 293 183 L 293 185 L 301 185 L 301 204 L 303 208 L 310 211 L 320 209 L 319 206 L 316 207 L 308 206 L 305 203 L 305 185 L 318 185 L 319 184 L 319 181 L 305 181 L 305 172 L 304 171 Z M 467 171 L 464 174 L 464 181 Q 458 179 456 183 L 456 185 L 464 185 L 464 203 L 466 208 L 473 211 L 483 209 L 482 206 L 479 207 L 471 206 L 468 203 L 468 185 L 481 185 L 482 184 L 482 181 L 468 181 L 468 172 L 467 171 Z M 199 173 L 197 175 L 197 210 L 212 210 L 217 208 L 222 201 L 220 194 L 215 191 Q 214 188 217 189 Q 220 186 219 179 L 215 174 L 199 173 Z M 370 173 L 366 175 L 361 180 L 358 189 L 359 200 L 361 204 L 367 209 L 374 211 L 379 210 L 385 206 L 384 203 L 376 207 Q 370 208 368 205 L 363 198 Q 361 185 366 180 L 372 176 Q 379 175 382 180 L 384 177 Q 380 171 370 173 Z M 237 181 L 235 182 L 228 191 Q 226 201 230 206 Q 233 210 240 211 L 248 209 Q 252 206 254 200 Q 255 191 252 187 Q 249 179 237 181 Z M 434 181 L 427 184 L 429 188 L 436 184 L 441 185 Q 444 187 444 192 L 434 193 L 428 196 Q 424 199 425 207 L 428 209 L 434 211 L 439 210 L 443 207 Q 447 206 445 210 L 448 210 L 448 189 L 447 186 Q 444 179 434 181 Z " /><path fill="rgb(251,243,239)" stroke="rgb(251,243,239)" stroke-width="1" opacity="1" d="M 202 177 Q 211.7 175 215 180.5 Q 216.3 185.8 213.5 187 Q 209.3 190 202 189 L 202 177 Z " /><path fill="rgb(251,243,239)" stroke="rgb(251,243,239)" stroke-width="1" opacity="1" d="M 239.5 184 Q 245.9 184.1 248 188.5 L 250 197.5 L 246.5 205 Q 244.2 207.7 238.5 207 L 234 203.5 Q 230.2 200.3 232 191.5 L 236.5 185 L 239.5 184 Z " /><path fill="rgb(251,243,239)" stroke="rgb(251,243,239)" stroke-width="1" opacity="1" d="M 202 192 L 213.5 193 L 217 196.5 L 218 199.5 L 214.5 205 L 212.5 206 L 202 206 L 202 192 Z " /><path fill="rgb(251,243,239)" stroke="rgb(251,243,239)" stroke-width="1" opacity="1" d="M 438.5 195 L 444 195 L 444 202.5 Q 441.2 208.2 431.5 207 L 428 202.5 L 430.5 198 L 438.5 195 Z " /><path fill="rgb(157,100,45)" stroke="rgb(157,100,45)" stroke-width="1" opacity="1" d="M 118.5 160 L 176 160 L 176 217.5 L 160 202.5 L 160 176 L 133.5 176 L 118.5 160 Z " /><path fill="rgb(157,100,45)" stroke="rgb(157,100,45)" stroke-width="1" opacity="1" d="M 116.5 162 L 132 177.5 L 132 204 L 158.5 204 L 174 219.5 L 116 220 L 116.5 162 Z " /><path fill="rgb(157,100,45)" stroke="rgb(157,100,45)" stroke-width="1" opacity="1" d="M 262 170 L 275 170 L 275 204.5 Q 276.5 208.5 283.5 207 Q 284.7 204.8 286 207.5 Q 286.8 209.8 284.5 209 Q 282.8 211.7 276.5 210 L 273 207.5 L 271 202.5 L 271 173 L 262 173 L 262 170 Z " /><path fill="rgb(157,100,45)" stroke="rgb(157,100,45)" stroke-width="1" opacity="1" d="M 393 170 L 396 170.5 L 396 185.5 L 398.5 184 Q 401.1 180.1 408.5 181 L 414 184.5 Q 417.9 193.6 416 208.5 L 413.5 210 L 412 208.5 L 412 187.5 L 408.5 184 L 403.5 184 L 396 189.5 L 396 209.5 L 393 210 L 393 170 Z " /><path fill="rgb(157,100,45)" stroke="rgb(157,100,45)" stroke-width="1" opacity="1" d="M 467.5 171 L 468 182 L 480.5 182 L 481 184 L 468 184 L 468 203.5 Q 470 209 479.5 207 L 482 206 Q 483.7 210.1 479.5 209 L 478.5 210 L 470.5 210 L 466 206.5 L 464 198.5 L 464 184 L 457.5 184 L 457 182 Q 463.1 183.7 465 180.5 Q 463.2 172.7 467.5 171 Z " /><path fill="rgb(157,100,45)" stroke="rgb(157,100,45)" stroke-width="1" opacity="1" d="M 303.5 172 L 305 172.5 L 305 182 L 317.5 182 L 318 184 L 305 184 L 305 203.5 Q 307 209 316.5 207 L 319 206 Q 320.7 210.1 316.5 209 L 315.5 210 L 307.5 210 L 303 206.5 Q 299.2 197.6 301 184 L 294.5 184 L 294 182 Q 300.1 183.7 302 180.5 Q 300.3 173.8 303.5 172 Z " /><path fill="rgb(157,100,45)" stroke="rgb(157,100,45)" stroke-width="1" opacity="1" d="M 370.5 173 Q 379.9 171.6 383 176.5 Q 384.1 179.8 381.5 179 Q 379.3 174.7 371.5 176 L 364 181.5 Q 361.1 186.1 362 194.5 L 365 202.5 L 367.5 205 Q 370.2 207.8 376.5 207 L 382.5 203 L 384 205.5 Q 380.9 211.4 370.5 210 L 363 205.5 Q 357 199.5 359 185.5 L 363 177 L 370.5 173 Z " /><path fill="rgb(157,100,45)" stroke="rgb(157,100,45)" stroke-width="1" opacity="1" d="M 198 174 L 213.5 174 L 218 177.5 L 219 184.5 L 214 190.5 Q 219.5 191 221 195.5 Q 222.6 205.6 216.5 208 L 208.5 210 L 198 210 L 198 174 Z M 201 176 L 201 189 L 211 189 L 213 188 L 216 184 L 215 180 Q 211 174 201 176 Z M 201 192 L 201 207 Q 209 208 215 205 L 218 201 L 217 196 L 213 192 L 201 192 Z " /><path fill="rgb(157,100,45)" stroke="rgb(157,100,45)" stroke-width="1" opacity="1" d="M 237.5 181 L 243.5 181 L 250 184 L 253 189.5 L 254 196.5 L 253 201.5 L 250 207 L 244.5 210 L 237.5 210 L 230 204.5 Q 226.9 200.1 228 191.5 Q 229.3 185.8 233.5 183 L 237.5 181 Z M 239 184 L 237 185 Q 232 188 231 195 Q 231 204 238 207 L 246 206 L 250 201 Q 252 191 248 188 Q 246 183 239 184 Z " /><path fill="rgb(157,100,45)" stroke="rgb(157,100,45)" stroke-width="1" opacity="1" d="M 434.5 181 Q 443.2 179.8 446 184.5 L 448 189.5 L 448 208.5 Q 446.5 211.5 445 208.5 Q 446.1 205.2 443.5 206 Q 440.4 211.4 430.5 210 L 426 206.5 L 425 200.5 L 429.5 195 L 434.5 193 L 444 192 Q 445.3 186.5 441.5 185 L 434.5 184 L 428.5 187 Q 425 185 429.5 183 L 434.5 181 Z M 438 195 Q 431 196 428 201 Q 427 206 432 207 L 439 207 L 444 204 L 444 195 L 438 195 Z " /></svg>