<?xml version="1.0" standalone="no"?>
<!DOCTYPE svg PUBLIC "-//W3C//DTD SVG 20010904//EN"
 "http://www.w3.org/TR/2001/REC-SVG-20010904/DTD/svg10.dtd">
<svg version="1.0" xmlns="http://www.w3.org/2000/svg"
 width="640.000000pt" height="360.000000pt" viewBox="0 0 640.000000 360.000000"
 preserveAspectRatio="xMidYMid meet">
<metadata>
Created by potrace 1.16, written by Peter Selinger 2001-2019
</metadata>
<g transform="translate(0.000000,360.000000) scale(0.100000,-0.100000)"
fill="#000000" stroke="none">
<path d="M1255 1920 c66 -66 85 -80 111 -80 38 0 43 6 82 93 l31 67 -152 0
-152 0 80 -80z"/>
<path d="M1160 1693 c0 -285 1 -293 20 -293 20 0 65 71 53 84 -4 3 -1 6 6 6 7
0 9 5 6 10 -3 6 -1 10 4 10 6 0 10 3 9 8 -1 4 12 37 30 73 28 59 32 77 32 149
l0 83 -80 81 -80 81 0 -292z"/>
<path d="M2620 1890 c0 -5 20 -10 45 -10 l45 0 0 -143 c0 -151 8 -201 37 -223
22 -16 67 -18 94 -3 25 13 15 30 -13 20 -36 -13 -66 -1 -77 32 -6 16 -11 99
-11 183 l0 154 -60 0 c-33 0 -60 -4 -60 -10z"/>
<path d="M3930 1705 c0 -167 2 -195 15 -195 12 0 15 18 15 99 l0 100 33 25
c41 31 87 34 112 6 14 -16 19 -42 23 -125 4 -80 8 -105 18 -105 16 0 19 125 5
199 -17 86 -100 105 -170 40 l-21 -20 0 86 c0 69 -3 85 -15 85 -13 0 -15 -28
-15 -195z"/>
<path d="M3027 1873 c-4 -3 -7 -26 -7 -50 l0 -43 -40 0 c-51 0 -53 -18 -2 -22
l37 -3 5 -108 c5 -99 7 -111 29 -128 24 -20 56 -23 110 -13 53 11 37 29 -22
26 -79 -5 -87 6 -87 129 l0 99 65 0 c37 0 65 4 65 10 0 6 -28 10 -65 10 l-65
0 0 50 c0 46 -7 60 -23 43z"/>
<path d="M4657 1873 c-4 -3 -7 -26 -7 -50 l0 -43 -40 0 c-51 0 -53 -18 -2 -22
l37 -3 5 -108 c5 -99 7 -111 29 -128 24 -20 56 -23 110 -13 53 11 37 29 -22
26 -79 -5 -87 6 -87 129 l0 99 65 0 c37 0 65 4 65 10 0 6 -28 10 -65 10 l-65
0 0 50 c0 46 -7 60 -23 43z"/>
<path d="M3673 1849 c-71 -35 -102 -136 -73 -241 11 -40 66 -94 105 -104 54
-13 149 26 131 55 -5 8 -15 6 -33 -9 -67 -52 -164 -2 -178 92 -17 111 33 198
112 198 21 0 48 -7 59 -15 20 -14 34 -11 34 6 0 14 -57 39 -87 39 -15 0 -47
-9 -70 -21z"/>
<path d="M1980 1685 l0 -175 75 0 c113 0 155 28 155 104 0 25 -7 40 -26 55
-15 12 -33 21 -41 21 -10 0 -3 11 16 29 30 28 38 60 25 96 -11 28 -60 45 -134
45 l-70 0 0 -175z m137 144 c48 -18 58 -59 23 -97 -17 -17 -32 -22 -75 -22
l-55 0 0 65 0 65 39 0 c22 0 52 -5 68 -11z m37 -170 c17 -13 26 -30 26 -47 -1
-53 -45 -82 -126 -82 l-44 0 0 75 0 75 59 0 c44 0 65 -5 85 -21z"/>
<path d="M2352 1773 c-92 -45 -93 -211 -1 -259 56 -28 131 -8 162 45 20 34 23
124 4 161 -16 32 -73 70 -106 70 -14 0 -41 -8 -59 -17z m99 -23 c28 -16 49
-63 49 -114 0 -61 -37 -106 -87 -106 -49 0 -68 13 -87 61 -20 50 -13 99 21
140 26 31 67 38 104 19z"/>
<path d="M4311 1769 c-32 -14 -41 -23 -34 -30 8 -8 18 -7 34 5 50 35 116 15
133 -40 6 -19 1 -22 -56 -34 -35 -6 -75 -18 -90 -26 -53 -28 -63 -80 -22 -121
22 -22 32 -25 71 -20 25 2 58 14 74 26 29 21 29 21 29 1 0 -12 7 -20 16 -20
14 0 16 14 12 111 -3 111 -3 111 -36 140 -38 34 -70 36 -131 8z m137 -156 c3
-36 -1 -44 -28 -63 -41 -29 -107 -31 -127 -4 -31 42 7 87 87 103 61 12 65 10
68 -36z"/>
</g>
</svg>
